<?xml version="1.0" encoding="UTF-8" standalone="no"?>
<!DOCTYPE svg PUBLIC "-//W3C//DTD SVG 1.1//EN"
 "http://www.w3.org/Graphics/SVG/1.1/DTD/svg11.dtd">
<!-- Generated by graphviz version 2.40.1 (20161225.0304)
 -->
<!-- Title: dependencies Pages: 1 -->
<svg width="504pt" height="211pt"
 viewBox="0.00 0.00 504.00 211.00" xmlns="http://www.w3.org/2000/svg" xmlns:xlink="http://www.w3.org/1999/xlink">
<g id="graph0" class="graph" transform="scale(1 1) rotate(0) translate(4 207)">
<title>dependencies</title>
<polygon fill="#ffffff" stroke="transparent" points="-4,4 -4,-207 500,-207 500,4 -4,4"/>
<text text-anchor="start" x="227.0091" y="-42.4" font-family="sans-serif" font-weight="bold" font-size="14.00" fill="#000000">Legend</text>
<polygon fill="#ffffb3" stroke="transparent" points="14,-10 14,-30 34,-30 34,-10 14,-10"/>
<text text-anchor="start" x="37.629" y="-15.4" font-family="sans-serif" font-size="14.00" fill="#000000"> &#160;Declarations</text>
<polygon fill="#8dd3c7" stroke="transparent" points="127,-10 127,-30 147,-30 147,-10 127,-10"/>
<text text-anchor="start" x="150.7251" y="-15.4" font-family="sans-serif" font-size="14.00" fill="#000000"> &#160;Module</text>
<polygon fill="#80b1d3" stroke="transparent" points="213,-10 213,-30 233,-30 233,-10 213,-10"/>
<text text-anchor="start" x="236.7812" y="-15.4" font-family="sans-serif" font-size="14.00" fill="#000000"> &#160;Bootstrap</text>
<polygon fill="#fdb462" stroke="transparent" points="310,-10 310,-30 330,-30 330,-10 310,-10"/>
<text text-anchor="start" x="333.6732" y="-15.4" font-family="sans-serif" font-size="14.00" fill="#000000"> &#160;Providers</text>
<polygon fill="#fb8072" stroke="transparent" points="406,-10 406,-30 426,-30 426,-10 406,-10"/>
<text text-anchor="start" x="429.7258" y="-15.4" font-family="sans-serif" font-size="14.00" fill="#000000"> &#160;Exports</text>
<g id="clust1" class="cluster">
<title>cluster_BookModule</title>
<polygon fill="none" stroke="#000000" stroke-dasharray="1,5" points="110,-70 110,-195 386,-195 386,-70 110,-70"/>
</g>
<g id="clust3" class="cluster">
<title>cluster_BookModule_imports</title>
<polygon fill="none" stroke="#000000" points="264,-78 264,-130 378,-130 378,-78 264,-78"/>
</g>
<g id="clust6" class="cluster">
<title>cluster_BookModule_providers</title>
<polygon fill="none" stroke="#000000" points="118,-78 118,-130 256,-130 256,-78 118,-78"/>
</g>
<!-- ConfigModule -->
<g id="node1" class="node">
<title>ConfigModule</title>
<polygon fill="#8dd3c7" stroke="#000000" points="370.4386,-122 367.4386,-126 346.4386,-126 343.4386,-122 271.5614,-122 271.5614,-86 370.4386,-86 370.4386,-122"/>
<text text-anchor="middle" x="321" y="-99.8" font-family="Times,serif" font-size="14.00" fill="#000000">ConfigModule</text>
</g>
<!-- BookModule -->
<g id="node2" class="node">
<title>BookModule</title>
<polygon fill="#8dd3c7" stroke="#000000" points="298.8865,-187 295.8865,-191 274.8865,-191 271.8865,-187 209.1135,-187 209.1135,-151 298.8865,-151 298.8865,-187"/>
<text text-anchor="middle" x="254" y="-164.8" font-family="Times,serif" font-size="14.00" fill="#000000">BookModule</text>
</g>
<!-- ConfigModule&#45;&gt;BookModule -->
<g id="edge1" class="edge">
<title>ConfigModule&#45;&gt;BookModule</title>
<path fill="none" stroke="#000000" d="M285.3622,-122.1061C285.3622,-122.1061 285.3622,-140.991 285.3622,-140.991"/>
<polygon fill="#000000" stroke="#000000" points="281.8623,-140.9909 285.3622,-150.991 288.8623,-140.991 281.8623,-140.9909"/>
</g>
<!-- BookService -->
<g id="node3" class="node">
<title>BookService</title>
<ellipse fill="#fdb462" stroke="#000000" cx="187" cy="-104" rx="60.8352" ry="18"/>
<text text-anchor="middle" x="187" y="-99.8" font-family="Times,serif" font-size="14.00" fill="#000000">BookService</text>
</g>
<!-- BookService&#45;&gt;BookModule -->
<g id="edge2" class="edge">
<title>BookService&#45;&gt;BookModule</title>
<path fill="none" stroke="#000000" d="M228.4872,-117.468C228.4872,-117.468 228.4872,-140.8642 228.4872,-140.8642"/>
<polygon fill="#000000" stroke="#000000" points="224.9873,-140.8641 228.4872,-150.8642 231.9873,-140.8642 224.9873,-140.8641"/>
</g>
</g>
</svg>
